<svg xmlns="http://www.w3.org/2000/svg" width="80" height="100" viewBox="0 0 80 100">
  <!-- Outer arch -->
  <path d="M5 100 L5 40 Q5 5 40 5 Q75 5 75 40 L75 100" stroke="#D4AF37" stroke-width="2.5" fill="none"/>
  <!-- Inner arch -->
  <path d="M16 100 L16 44 Q16 18 40 18 Q64 18 64 44 L64 100" stroke="#D4AF37" stroke-width="1.5" fill="rgba(212,175,55,0.08)"/>
  <!-- Star -->
  <polygon points="40,0 42,6 48,6 43,10 45,16 40,12 35,16 37,10 32,6 38,6" fill="#F4D03F"/>
  <!-- Inner circle -->
  <circle cx="40" cy="42" r="9" stroke="#F4D03F" stroke-width="1.2" fill="none"/>
  <!-- Column caps -->
  <rect x="1" y="36" width="12" height="5" rx="1" fill="#D4AF37"/>
  <rect x="67" y="36" width="12" height="5" rx="1" fill="#D4AF37"/>
  <!-- Column bases -->
  <rect x="1" y="93" width="12" height="7" rx="1" fill="#D4AF37"/>
  <rect x="67" y="93" width="12" height="7" rx="1" fill="#D4AF37"/>
</svg>
